<?xml version="1.0" encoding="UTF-8" standalone="no"?>
<!-- Created with Inkscape (http://www.inkscape.org/) -->

<svg
   xmlns:dc="http://purl.org/dc/elements/1.1/"
   xmlns:cc="http://creativecommons.org/ns#"
   xmlns:rdf="http://www.w3.org/1999/02/22-rdf-syntax-ns#"
   xmlns:svg="http://www.w3.org/2000/svg"
   xmlns="http://www.w3.org/2000/svg"
   xmlns:sodipodi="http://sodipodi.sourceforge.net/DTD/sodipodi-0.dtd"
   xmlns:inkscape="http://www.inkscape.org/namespaces/inkscape"
   width="235.8246mm"
   height="52.294727mm"
   viewBox="0 0 235.8246 52.294728"
   version="1.1"
   id="svg8"
   inkscape:version="0.92.4 (5da689c313, 2019-01-14)"
   sodipodi:docname="sa-title.svg"
   inkscape:export-filename="D:\johnl\Documents\spellassist-site\images\sa-title.png"
   inkscape:export-xdpi="236.6718"
   inkscape:export-ydpi="236.6718">
  <defs
     id="defs2" />
  <sodipodi:namedview
     id="base"
     pagecolor="#ffffff"
     bordercolor="#666666"
     borderopacity="1.0"
     inkscape:pageopacity="0"
     inkscape:pageshadow="2"
     inkscape:zoom="0.98994949"
     inkscape:cx="435.77248"
     inkscape:cy="112.43844"
     inkscape:document-units="mm"
     inkscape:current-layer="layer1"
     showgrid="false"
     inkscape:object-paths="true"
     fit-margin-top="2"
     fit-margin-right="2"
     fit-margin-bottom="2"
     fit-margin-left="2"
     inkscape:window-width="1536"
     inkscape:window-height="801"
     inkscape:window-x="1912"
     inkscape:window-y="-8"
     inkscape:window-maximized="1" />
  <metadata
     id="metadata5">
    <rdf:RDF>
      <cc:Work
         rdf:about="">
        <dc:format>image/svg+xml</dc:format>
        <dc:type
           rdf:resource="http://purl.org/dc/dcmitype/StillImage" />
        <dc:title />
      </cc:Work>
    </rdf:RDF>
  </metadata>
  <g
     inkscape:label="Layer 1"
     inkscape:groupmode="layer"
     id="layer1"
     transform="translate(-82.066556,-56.313996)">
    <g
       aria-label="SpellAssist"
       style="font-style:normal;font-variant:normal;font-weight:normal;font-stretch:normal;font-size:5.64444447px;line-height:1.25;font-family:Impact;-inkscape-font-specification:Impact;letter-spacing:0px;word-spacing:0px;fill:#4d4d4d;fill-opacity:1;stroke:none;stroke-width:0.26458332"
       id="text824-1"
       transform="translate(38.936308,43.63312)">
      <path
         d="m 47.610717,44.595332 q 0.496094,2.182812 1.339453,3.447851 0.843359,1.265039 2.182813,1.885156 1.339453,0.595313 3.447851,0.595313 2.902148,0 4.440039,-1.513086 1.562695,-1.513086 1.562695,-4.415234 0,-1.860352 -0.644922,-3.125391 -0.644921,-1.265039 -2.108398,-2.38125 -1.463477,-1.116211 -4.464844,-2.604492 -2.902148,-1.438672 -4.588867,-2.80293 -1.686718,-1.389062 -2.530078,-3.001367 -0.818555,-1.612304 -0.818555,-3.522265 0,-2.778125 1.289844,-4.81211 1.314649,-2.058789 3.819922,-3.175 2.530078,-1.116211 5.779492,-1.116211 1.885156,0 3.671094,0.198438 1.810742,0.198437 4.514453,0.892969 v 6.697265 h -2.455664 q -0.570508,-2.182812 -1.438672,-3.398242 -0.868164,-1.21543 -2.033984,-1.686719 -1.165821,-0.496093 -3.026172,-0.496093 -1.612305,0 -2.902149,0.595312 -1.265039,0.595313 -2.009179,1.810742 -0.744141,1.190625 -0.744141,2.852539 0,1.761133 0.620117,2.976563 0.644922,1.215429 1.984375,2.257226 1.339453,1.041797 3.96875,2.331641 3.175,1.5875 4.911328,2.951758 1.761133,1.364257 2.728516,3.12539 0.992187,1.736328 0.992187,4.067969 0,2.604492 -0.818554,4.415234 -0.818555,1.785938 -2.282032,2.926953 -1.438671,1.116211 -3.472656,1.63711 -2.009179,0.496093 -4.415234,0.496093 -3.894336,0 -8.979297,-1.314648 v -6.796484 z"
         style="font-style:normal;font-variant:normal;font-weight:normal;font-stretch:normal;font-size:50.79999924px;font-family:'Cambria Math';-inkscape-font-specification:'Cambria Math';fill:#4d4d4d;stroke-width:0.26458332"
         id="path826-6"
         inkscape:connector-curvature="0" />
      <path
         d="m 76.681811,51.565449 v 5.233789 q 0,1.612304 0.09922,2.406054 0.124023,0.79375 0.396875,1.240235 0.297656,0.471289 0.818554,0.768945 0.545704,0.297656 1.736329,0.545703 v 1.21543 H 69.612475 v -1.21543 q 0.892969,-0.248047 1.438672,-0.520898 0.570508,-0.248047 0.868164,-0.768946 0.297656,-0.496093 0.396875,-1.364257 0.09922,-0.868164 0.09922,-2.306836 V 35.516816 q 0,-1.785937 -0.04961,-2.530078 -0.04961,-0.768945 -0.198437,-1.265039 -0.148828,-0.496094 -0.446484,-0.818555 -0.272852,-0.322461 -0.768946,-0.545703 -0.471289,-0.223242 -1.5875,-0.446484 v -1.314649 l 5.829102,-0.223242 h 1.513086 l -0.322461,4.043164 0.37207,0.09922 q 1.537891,-1.562695 2.430859,-2.257226 0.892969,-0.719336 1.835547,-1.190625 0.967383,-0.47129 1.835547,-0.669727 0.892969,-0.198438 1.885156,-0.198438 4.092774,0 6.275586,3.075782 2.207617,3.050976 2.207617,8.954492 0,4.092773 -1.240234,6.895703 -1.240234,2.778125 -3.621484,4.191992 -2.356446,1.389062 -5.630664,1.389062 -1.835547,0 -3.323828,-0.322461 -1.488282,-0.297656 -2.728516,-0.818554 z m 0,-8.185547 q 0,2.38125 0.297656,3.671094 0.297656,1.289843 1.041797,2.108398 0.768945,0.79375 1.785938,1.190625 1.041796,0.396875 2.728515,0.396875 3.001367,0 4.514453,-2.480469 1.513086,-2.505273 1.513086,-7.366992 0,-9.723437 -5.680273,-9.723437 -1.389063,0 -2.406055,0.446484 -0.992187,0.42168 -1.984375,1.389063 -0.992187,0.967383 -1.413867,1.885156 -0.396875,0.892969 -0.396875,1.934766 z"
         style="font-style:normal;font-variant:normal;font-weight:normal;font-stretch:normal;font-size:50.79999924px;font-family:'Cambria Math';-inkscape-font-specification:'Cambria Math';fill:#4d4d4d;stroke-width:0.26458332"
         id="path828-7"
         inkscape:connector-curvature="0" />
      <path
         d="m 118.05603,48.092793 q -1.5875,1.661914 -2.92696,2.604492 -1.31464,0.942578 -2.90214,1.488281 -1.5875,0.520898 -3.49746,0.520898 -5.10977,0 -7.71426,-3.050976 -2.604495,-3.075781 -2.604495,-9.053711 0,-3.695898 1.314649,-6.523633 1.339456,-2.827734 3.795116,-4.365625 2.45567,-1.53789 5.65547,-1.53789 2.50527,0 4.26641,0.79375 1.76113,0.79375 2.80293,2.182812 1.0666,1.364258 1.6371,3.472656 0.59532,2.083594 0.66973,5.457032 h -15.62695 v 0.446484 q 0,2.926953 0.64492,4.936133 0.66973,1.984375 2.15801,3.12539 1.51308,1.116211 3.91914,1.116211 2.03398,0 3.64629,-0.74414 1.63711,-0.768946 3.24941,-2.480469 z M 113.88884,38.02209 q -0.14883,-2.678907 -0.66973,-4.365625 -0.52089,-1.711524 -1.56269,-2.604492 -1.0418,-0.917774 -2.72852,-0.917774 -2.55488,0 -4.09277,2.058789 -1.51309,2.033984 -1.78594,5.829102 z"
         style="font-style:normal;font-variant:normal;font-weight:normal;font-stretch:normal;font-size:50.79999924px;font-family:'Cambria Math';-inkscape-font-specification:'Cambria Math';fill:#4d4d4d;stroke-width:0.26458332"
         id="path830-9"
         inkscape:connector-curvature="0" />
      <path
         d="m 129.66462,46.108418 q 0,2.133203 0.19844,2.976562 0.19844,0.818555 0.74414,1.265039 0.57051,0.42168 1.83555,0.744141 v 1.215429 h -9.84746 V 51.09416 q 1.24023,-0.322461 1.71152,-0.669727 0.49609,-0.347265 0.69453,-0.818555 0.22324,-0.496093 0.29766,-1.314648 0.0992,-0.843359 0.0992,-2.182812 V 25.346894 q 0,-2.381249 -0.0496,-3.323828 -0.0248,-0.942578 -0.19844,-1.5875 -0.14883,-0.669726 -0.44649,-1.041796 -0.27285,-0.372071 -0.76894,-0.595313 -0.47129,-0.223242 -1.73633,-0.446484 v -1.289844 l 5.97793,-0.248047 h 1.48828 z"
         style="font-style:normal;font-variant:normal;font-weight:normal;font-stretch:normal;font-size:50.79999924px;font-family:'Cambria Math';-inkscape-font-specification:'Cambria Math';fill:#4d4d4d;stroke-width:0.26458332"
         id="path832-7"
         inkscape:connector-curvature="0" />
      <path
         d="m 143.45603,46.108418 q 0,2.133203 0.19843,2.976562 0.19844,0.818555 0.74414,1.265039 0.57051,0.42168 1.83555,0.744141 v 1.215429 h -9.84746 V 51.09416 q 1.24023,-0.322461 1.71152,-0.669727 0.4961,-0.347265 0.69454,-0.818555 0.22324,-0.496093 0.29765,-1.314648 0.0992,-0.843359 0.0992,-2.182812 V 25.346894 q 0,-2.381249 -0.0496,-3.323828 -0.0248,-0.942578 -0.19844,-1.5875 -0.14882,-0.669726 -0.44648,-1.041796 -0.27285,-0.372071 -0.76895,-0.595313 -0.47129,-0.223242 -1.73632,-0.446484 v -1.289844 l 5.97793,-0.248047 h 1.48828 z"
         style="font-style:normal;font-variant:normal;font-weight:normal;font-stretch:normal;font-size:50.79999924px;font-family:'Cambria Math';-inkscape-font-specification:'Cambria Math';fill:#4d4d4d;stroke-width:0.26458332"
         id="path834-2"
         inkscape:connector-curvature="0" />
      <path
         d="M 167.96306,52.309589 V 51.09416 q 1.24024,-0.248047 1.83555,-0.545703 0.62012,-0.297657 0.91777,-0.818555 0.29766,-0.545703 0.29766,-1.438672 0,-0.843359 -0.19844,-1.810742 -0.19843,-0.992188 -0.57051,-2.207617 l -0.91777,-3.199805 h -11.55898 l -0.84336,2.430859 q -0.64492,1.835547 -0.84336,2.778125 -0.19844,0.942579 -0.19844,1.711524 0,1.488281 0.74414,2.182812 0.76895,0.694532 2.33164,0.917774 v 1.215429 h -10.5916 V 51.09416 q 1.38906,-0.223242 2.40606,-1.612305 1.04179,-1.389062 2.00917,-3.96875 l 10.34356,-27.458789 h 3.91914 l 8.43359,27.657227 q 0.59532,1.934765 1.0418,2.951757 0.47129,1.016993 1.11621,1.5875 0.64492,0.570508 1.76113,0.84336 v 1.215429 z m -9.525,-13.394531 h 10.36836 l -4.71289,-15.999023 z"
         style="font-style:normal;font-variant:normal;font-weight:normal;font-stretch:normal;font-size:50.79999924px;font-family:'Cambria Math';-inkscape-font-specification:'Cambria Math';fill:#4d4d4d;stroke-width:0.26458332"
         id="path836-7"
         inkscape:connector-curvature="0" />
      <path
         d="m 198.8945,34.028535 h -2.38125 q -0.5457,-1.488281 -1.28984,-2.331641 -0.74414,-0.868164 -1.68672,-1.215429 -0.94258,-0.347266 -2.30684,-0.347266 -1.98437,0 -3.175,0.942578 -1.16582,0.917774 -1.16582,2.530078 0,1.141016 0.47129,1.885157 0.47129,0.74414 1.46348,1.389062 0.99218,0.644922 3.49746,1.711523 2.53008,1.091407 3.89433,2.00918 1.38907,0.917773 2.15801,2.133203 0.79375,1.21543 0.79375,2.902149 0,1.95957 -0.66973,3.299023 -0.66972,1.339453 -1.88515,2.182812 -1.21543,0.84336 -2.90215,1.21543 -1.66191,0.37207 -3.64629,0.37207 -2.08359,0 -4.04316,-0.322461 -1.95957,-0.297656 -3.81992,-0.79375 v -5.184179 h 2.43085 q 0.66973,2.282031 1.98438,3.323828 1.31465,1.016992 3.62148,1.016992 0.89297,0 1.73633,-0.173633 0.86817,-0.198437 1.53789,-0.620117 0.66973,-0.446484 1.0666,-1.190625 0.39688,-0.74414 0.39688,-1.860351 0,-1.265039 -0.49609,-2.058789 -0.4961,-0.79375 -1.5379,-1.438672 -1.04179,-0.669727 -3.67109,-1.785938 -2.25723,-0.942578 -3.62148,-1.835547 -1.36426,-0.892968 -2.15801,-2.108398 -0.76895,-1.21543 -0.76895,-2.877344 0,-2.033984 1.09141,-3.522265 1.11621,-1.513086 3.1998,-2.306836 2.0836,-0.79375 4.88653,-0.79375 1.63711,0 3.15019,0.173633 1.53789,0.148828 3.84473,0.620117 z"
         style="font-style:normal;font-variant:normal;font-weight:normal;font-stretch:normal;font-size:50.79999924px;font-family:'Cambria Math';-inkscape-font-specification:'Cambria Math';fill:#4d4d4d;stroke-width:0.26458332"
         id="path838-5"
         inkscape:connector-curvature="0" />
      <path
         d="m 220.72262,34.028535 h -2.38125 q -0.5457,-1.488281 -1.28984,-2.331641 -0.74414,-0.868164 -1.68672,-1.215429 -0.94258,-0.347266 -2.30683,-0.347266 -1.98438,0 -3.175,0.942578 -1.16582,0.917774 -1.16582,2.530078 0,1.141016 0.47129,1.885157 0.47128,0.74414 1.46347,1.389062 0.99219,0.644922 3.49746,1.711523 2.53008,1.091407 3.89434,2.00918 1.38906,0.917773 2.15801,2.133203 0.79375,1.21543 0.79375,2.902149 0,1.95957 -0.66973,3.299023 -0.66973,1.339453 -1.88516,2.182812 -1.21543,0.84336 -2.90214,1.21543 -1.66192,0.37207 -3.64629,0.37207 -2.0836,0 -4.04317,-0.322461 -1.95957,-0.297656 -3.81992,-0.79375 v -5.184179 h 2.43086 q 0.66973,2.282031 1.98437,3.323828 1.31465,1.016992 3.62149,1.016992 0.89297,0 1.73633,-0.173633 0.86816,-0.198437 1.53789,-0.620117 0.66972,-0.446484 1.0666,-1.190625 0.39687,-0.74414 0.39687,-1.860351 0,-1.265039 -0.49609,-2.058789 -0.49609,-0.79375 -1.53789,-1.438672 -1.0418,-0.669727 -3.67109,-1.785938 -2.25723,-0.942578 -3.62149,-1.835547 -1.36426,-0.892968 -2.15801,-2.108398 -0.76894,-1.21543 -0.76894,-2.877344 0,-2.033984 1.0914,-3.522265 1.11622,-1.513086 3.19981,-2.306836 2.08359,-0.79375 4.88652,-0.79375 1.63711,0 3.1502,0.173633 1.53789,0.148828 3.84472,0.620117 z"
         style="font-style:normal;font-variant:normal;font-weight:normal;font-stretch:normal;font-size:50.79999924px;font-family:'Cambria Math';-inkscape-font-specification:'Cambria Math';fill:#4d4d4d;stroke-width:0.26458332"
         id="path840-2"
         inkscape:connector-curvature="0" />
      <path
         d="m 225.93161,51.09416 c 0.64492,-0.198438 1.09967,-0.372071 1.36426,-0.520899 0.28112,-0.148828 0.51263,-0.355534 0.69453,-0.620117 0.19843,-0.264583 0.34726,-0.669727 0.44648,-1.21543 0.11576,-0.545703 0.17364,-1.39733 0.17364,-2.554882 V 35.367988 c 0,-1.058333 -0.0165,-1.909961 -0.0496,-2.554883 -0.0331,-0.644921 -0.14882,-1.157551 -0.34727,-1.53789 -0.19844,-0.396875 -0.50436,-0.686263 -0.91777,-0.868164 -0.39688,-0.198438 -0.96739,-0.363803 -1.71153,-0.496094 v -1.314649 l 5.7795,-0.223242 h 1.51308 v 17.735352 c 0,1.422135 0.0662,2.414323 0.19844,2.976562 0.13229,0.545703 0.38034,0.967383 0.74414,1.265039 0.38034,0.28112 0.99219,0.529167 1.83555,0.744141 v 1.215429 h -9.72344 z"
         style="font-style:normal;font-variant:normal;font-weight:normal;font-stretch:normal;font-size:50.79999924px;font-family:'Cambria Math';-inkscape-font-specification:'Cambria Math';fill:#4d4d4d;stroke-width:0.26458332"
         id="path842-9"
         inkscape:connector-curvature="0"
         sodipodi:nodetypes="ccccsssccccccscccccc" />
      <path
         d="m 256.63982,34.028535 h -2.38125 q -0.54571,-1.488281 -1.28985,-2.331641 -0.74414,-0.868164 -1.68672,-1.215429 -0.94258,-0.347266 -2.30683,-0.347266 -1.98438,0 -3.175,0.942578 -1.16582,0.917774 -1.16582,2.530078 0,1.141016 0.47129,1.885157 0.47128,0.74414 1.46347,1.389062 0.99219,0.644922 3.49746,1.711523 2.53008,1.091407 3.89434,2.00918 1.38906,0.917773 2.15801,2.133203 0.79375,1.21543 0.79375,2.902149 0,1.95957 -0.66973,3.299023 -0.66973,1.339453 -1.88516,2.182812 -1.21543,0.84336 -2.90214,1.21543 -1.66192,0.37207 -3.64629,0.37207 -2.0836,0 -4.04317,-0.322461 -1.95957,-0.297656 -3.81992,-0.79375 v -5.184179 h 2.43086 q 0.66973,2.282031 1.98438,3.323828 1.31464,1.016992 3.62148,1.016992 0.89297,0 1.73633,-0.173633 0.86816,-0.198437 1.53789,-0.620117 0.66972,-0.446484 1.0666,-1.190625 0.39687,-0.74414 0.39687,-1.860351 0,-1.265039 -0.49609,-2.058789 -0.49609,-0.79375 -1.53789,-1.438672 -1.0418,-0.669727 -3.67109,-1.785938 -2.25723,-0.942578 -3.62149,-1.835547 -1.36426,-0.892968 -2.15801,-2.108398 -0.76894,-1.21543 -0.76894,-2.877344 0,-2.033984 1.09141,-3.522265 1.11621,-1.513086 3.1998,-2.306836 2.08359,-0.79375 4.88652,-0.79375 1.63711,0 3.1502,0.173633 1.53789,0.148828 3.84473,0.620117 z"
         style="font-style:normal;font-variant:normal;font-weight:normal;font-stretch:normal;font-size:50.79999924px;font-family:'Cambria Math';-inkscape-font-specification:'Cambria Math';fill:#4d4d4d;stroke-width:0.26458332"
         id="path844-6"
         inkscape:connector-curvature="0" />
      <path
         d="m 260.36052,29.836543 q 1.24023,-0.198438 2.00918,-0.694531 0.76894,-0.496094 1.19062,-1.265039 0.44649,-0.79375 0.69453,-1.959571 0.24805,-1.190625 0.5209,-3.447851 h 3.52227 v 6.126757 h 8.01191 v 2.505274 h -8.01191 v 11.038086 q 0,2.406054 0.19844,3.844726 0.19843,1.413867 0.74414,2.232422 0.5457,0.79375 1.24023,1.141016 0.69453,0.347265 1.78594,0.347265 0.99219,0 1.86035,-0.396875 0.86816,-0.421679 1.71152,-1.190625 l 1.11621,1.339453 q -1.76113,1.711524 -3.34863,2.480469 -1.56269,0.768945 -3.24941,0.768945 -3.19981,0 -4.7625,-1.885156 -1.5627,-1.909961 -1.5627,-5.953125 V 31.101582 h -3.67109 z"
         style="font-style:normal;font-variant:normal;font-weight:normal;font-stretch:normal;font-size:50.79999924px;font-family:'Cambria Math';-inkscape-font-specification:'Cambria Math';fill:#4d4d4d;stroke-width:0.26458332"
         id="path846-1"
         inkscape:connector-curvature="0" />
    </g>
    <path
       style="opacity:1;fill:none;fill-opacity:1;stroke:#ff0000;stroke-width:1.26499999;stroke-linecap:round;stroke-linejoin:round;stroke-miterlimit:4;stroke-dasharray:none;stroke-dashoffset:0;stroke-opacity:1;paint-order:normal"
       d="m 204.34682,75.589104 v 3.732514 h -3.73252"
       id="rect839"
       inkscape:connector-curvature="0"
       sodipodi:nodetypes="ccc" />
    <path
       inkscape:connector-curvature="0"
       style="opacity:1;fill:none;fill-opacity:1;stroke:#ff0000;stroke-width:1.26499999;stroke-linecap:round;stroke-linejoin:round;stroke-miterlimit:4;stroke-dasharray:none;stroke-dashoffset:0;stroke-opacity:1;paint-order:normal"
       d="M 96.460358,66.887701 94.594101,68.753958 92.727842,66.8877"
       id="rect839-9-1"
       sodipodi:nodetypes="ccc" />
    <path
       style="opacity:1;fill:none;fill-opacity:1;stroke:#ff0000;stroke-width:1.26499999;stroke-linecap:round;stroke-linejoin:round;stroke-miterlimit:4;stroke-dasharray:none;stroke-dashoffset:0;stroke-opacity:1;paint-order:normal"
       d="m 95.04393,87.604514 h -3.732514 v -3.73252"
       id="rect839-0"
       inkscape:connector-curvature="0"
       sodipodi:nodetypes="ccc" />
    <path
       style="opacity:1;fill:none;fill-opacity:1;stroke:#ff0000;stroke-width:1.26499999;stroke-linecap:round;stroke-linejoin:round;stroke-miterlimit:4;stroke-dasharray:none;stroke-dashoffset:0;stroke-opacity:1;paint-order:normal"
       d="m 93.182146,85.733781 v 0"
       id="rect839-0-5"
       inkscape:connector-curvature="0"
       sodipodi:nodetypes="cc" />
    <path
       style="opacity:1;fill:none;fill-opacity:1;stroke:#ff0000;stroke-width:1.26499999;stroke-linecap:round;stroke-linejoin:round;stroke-miterlimit:4;stroke-dasharray:none;stroke-dashoffset:0;stroke-opacity:1;paint-order:normal"
       d="m 200.6143,86.451097 h 3.73251 v 3.73252"
       id="rect839-0-55"
       inkscape:connector-curvature="0"
       sodipodi:nodetypes="ccc" />
    <path
       inkscape:connector-curvature="0"
       id="path826"
       style="font-style:normal;font-variant:normal;font-weight:normal;font-stretch:normal;font-size:50.79999924px;line-height:1.25;font-family:'Cambria Math';-inkscape-font-specification:'Cambria Math';letter-spacing:0px;word-spacing:0px;fill:#ffffff;fill-opacity:1;stroke:none;stroke-width:0.26458332"
       d="m 86.547028,86.095246 q 0.496094,2.182812 1.339453,3.447851 0.843359,1.265039 2.182813,1.885156 1.339453,0.595313 3.447851,0.595313 2.902148,0 4.440039,-1.513086 1.562695,-1.513086 1.562695,-4.415234 0,-1.860352 -0.644922,-3.125391 -0.644921,-1.265039 -2.108398,-2.38125 -1.463477,-1.116211 -4.464844,-2.604492 -2.902148,-1.438672 -4.588867,-2.80293 -1.686718,-1.389062 -2.530078,-3.001367 -0.818555,-1.612304 -0.818555,-3.522265 0,-2.778125 1.289844,-4.81211 1.314649,-2.058789 3.819922,-3.175 2.530078,-1.116211 5.779492,-1.116211 1.885156,0 3.671094,0.198438 1.810743,0.198437 4.514453,0.892969 v 6.697265 h -2.45566 Q 100.41285,65.16009 99.544684,63.94466 98.67652,62.72923 97.5107,62.257941 q -1.165821,-0.496093 -3.026172,-0.496093 -1.612305,0 -2.902149,0.595312 -1.265039,0.595313 -2.009179,1.810742 -0.744141,1.190625 -0.744141,2.852539 0,1.761133 0.620117,2.976563 0.644922,1.215429 1.984375,2.257226 1.339453,1.041797 3.96875,2.331641 3.175,1.5875 4.911329,2.951758 1.76113,1.364257 2.72852,3.12539 0.99218,1.736328 0.99218,4.067969 0,2.604492 -0.81855,4.415234 -0.81856,1.785938 -2.28203,2.926953 -1.438675,1.116211 -3.47266,1.63711 -2.009179,0.496093 -4.415234,0.496093 -3.894336,0 -8.979297,-1.314648 v -6.796484 z" />
    <path
       inkscape:connector-curvature="0"
       id="path828"
       style="font-style:normal;font-variant:normal;font-weight:normal;font-stretch:normal;font-size:50.79999924px;line-height:1.25;font-family:'Cambria Math';-inkscape-font-specification:'Cambria Math';letter-spacing:0px;word-spacing:0px;fill:#ffffff;fill-opacity:1;stroke:none;stroke-width:0.26458332"
       d="m 115.61812,93.065363 v 5.233789 q 0,1.612304 0.0992,2.406058 0.12402,0.79375 0.39688,1.24023 0.29765,0.47129 0.81855,0.76895 0.54571,0.29765 1.73633,0.5457 v 1.21543 h -10.12031 v -1.21543 q 0.89297,-0.24805 1.43867,-0.5209 0.57051,-0.24805 0.86816,-0.76894 0.29766,-0.4961 0.39688,-1.36426 0.0992,-0.868166 0.0992,-2.306838 V 77.01673 q 0,-1.785937 -0.0496,-2.530078 -0.0496,-0.768945 -0.19844,-1.265039 -0.14883,-0.496094 -0.44648,-0.818555 -0.27286,-0.322461 -0.76895,-0.545703 -0.47129,-0.223242 -1.5875,-0.446484 v -1.314649 l 5.8291,-0.223242 h 1.51309 l -0.32246,4.043164 0.37207,0.09922 q 1.53789,-1.562695 2.43086,-2.257226 0.89296,-0.719336 1.83554,-1.190625 0.96739,-0.47129 1.83555,-0.669727 0.89297,-0.198438 1.88516,-0.198438 4.09277,0 6.27558,3.075782 2.20762,3.050976 2.20762,8.954492 0,4.092773 -1.24024,6.895703 -1.24023,2.778125 -3.62148,4.191992 -2.35645,1.389062 -5.63066,1.389062 -1.83555,0 -3.32383,-0.322461 -1.48828,-0.297656 -2.72852,-0.818554 z m 0,-8.185547 q 0,2.38125 0.29766,3.671094 0.29765,1.289843 1.0418,2.108398 0.76894,0.79375 1.78593,1.190625 1.0418,0.396875 2.72852,0.396875 3.00137,0 4.51445,-2.480469 1.51309,-2.505273 1.51309,-7.366992 0,-9.723437 -5.68028,-9.723437 -1.38906,0 -2.40605,0.446484 -0.99219,0.42168 -1.98438,1.389063 -0.99218,0.967383 -1.41386,1.885156 -0.39688,0.892969 -0.39688,1.934766 z" />
    <path
       inkscape:connector-curvature="0"
       id="path830"
       style="font-style:normal;font-variant:normal;font-weight:normal;font-stretch:normal;font-size:50.79999924px;line-height:1.25;font-family:'Cambria Math';-inkscape-font-specification:'Cambria Math';letter-spacing:0px;word-spacing:0px;fill:#ffffff;fill-opacity:1;stroke:none;stroke-width:0.26458332"
       d="m 156.99234,89.592707 q -1.5875,1.661914 -2.92696,2.604492 -1.31464,0.942578 -2.90214,1.488281 -1.5875,0.520898 -3.49746,0.520898 -5.10977,0 -7.71426,-3.050976 -2.60449,-3.075781 -2.60449,-9.053711 0,-3.695898 1.31464,-6.523633 1.33946,-2.827734 3.79512,-4.365625 2.45567,-1.53789 5.65547,-1.53789 2.50527,0 4.26641,0.79375 1.76113,0.79375 2.80293,2.182812 1.0666,1.364258 1.6371,3.472656 0.59532,2.083594 0.66973,5.457032 h -15.62695 v 0.446484 q 0,2.926953 0.64492,4.936133 0.66973,1.984375 2.15801,3.12539 1.51308,1.116211 3.91914,1.116211 2.03398,0 3.64629,-0.74414 1.63711,-0.768946 3.24941,-2.480469 z m -4.16719,-10.070703 q -0.14883,-2.678907 -0.66973,-4.365625 -0.52089,-1.711524 -1.56269,-2.604492 -1.0418,-0.917774 -2.72852,-0.917774 -2.55488,0 -4.09277,2.058789 -1.51309,2.033984 -1.78594,5.829102 z" />
    <path
       inkscape:connector-curvature="0"
       id="path832"
       style="font-style:normal;font-variant:normal;font-weight:normal;font-stretch:normal;font-size:50.79999924px;line-height:1.25;font-family:'Cambria Math';-inkscape-font-specification:'Cambria Math';letter-spacing:0px;word-spacing:0px;fill:#ffffff;fill-opacity:1;stroke:none;stroke-width:0.26458332"
       d="m 168.60093,87.608332 q 0,2.133203 0.19844,2.976562 0.19844,0.818555 0.74414,1.265039 0.57051,0.42168 1.83555,0.744141 v 1.215429 h -9.84746 v -1.215429 q 1.24023,-0.322461 1.71152,-0.669727 0.49609,-0.347265 0.69453,-0.818555 0.22324,-0.496093 0.29766,-1.314648 0.0992,-0.843359 0.0992,-2.182812 V 66.846808 q 0,-2.381249 -0.0496,-3.323828 -0.0248,-0.942578 -0.19844,-1.5875 -0.14883,-0.669726 -0.44649,-1.041796 -0.27285,-0.372071 -0.76894,-0.595313 -0.47129,-0.223242 -1.73633,-0.446484 v -1.289844 l 5.97793,-0.248047 h 1.48828 z" />
    <path
       inkscape:connector-curvature="0"
       id="path834"
       style="font-style:normal;font-variant:normal;font-weight:normal;font-stretch:normal;font-size:50.79999924px;line-height:1.25;font-family:'Cambria Math';-inkscape-font-specification:'Cambria Math';letter-spacing:0px;word-spacing:0px;fill:#ffffff;fill-opacity:1;stroke:none;stroke-width:0.26458332"
       d="m 182.39234,87.608332 q 0,2.133203 0.19843,2.976562 0.19844,0.818555 0.74414,1.265039 0.57051,0.42168 1.83555,0.744141 v 1.215429 H 175.323 v -1.215429 q 1.24023,-0.322461 1.71152,-0.669727 0.4961,-0.347265 0.69454,-0.818555 0.22324,-0.496093 0.29765,-1.314648 0.0992,-0.843359 0.0992,-2.182812 V 66.846808 q 0,-2.381249 -0.0496,-3.323828 -0.0248,-0.942578 -0.19844,-1.5875 -0.14882,-0.669726 -0.44648,-1.041796 -0.27285,-0.372071 -0.76895,-0.595313 -0.47129,-0.223242 -1.73632,-0.446484 v -1.289844 l 5.97793,-0.248047 h 1.48828 z" />
    <path
       inkscape:connector-curvature="0"
       id="path836"
       style="font-style:normal;font-variant:normal;font-weight:normal;font-stretch:normal;font-size:50.79999924px;line-height:1.25;font-family:'Cambria Math';-inkscape-font-specification:'Cambria Math';letter-spacing:0px;word-spacing:0px;fill:#ffffff;fill-opacity:1;stroke:none;stroke-width:0.26458332"
       d="m 206.89937,93.809503 v -1.215429 q 1.24024,-0.248047 1.83555,-0.545703 0.62012,-0.297657 0.91777,-0.818555 0.29766,-0.545703 0.29766,-1.438672 0,-0.843359 -0.19844,-1.810742 -0.19843,-0.992188 -0.57051,-2.207617 l -0.91777,-3.199805 h -11.55898 l -0.84336,2.430859 q -0.64492,1.835547 -0.84336,2.778125 -0.19844,0.942579 -0.19844,1.711524 0,1.488281 0.74414,2.182812 0.76895,0.694532 2.33164,0.917774 v 1.215429 h -10.5916 v -1.215429 q 1.38906,-0.223242 2.40606,-1.612305 1.04179,-1.389062 2.00917,-3.96875 L 202.06246,59.55423 h 3.91914 l 8.43359,27.657227 q 0.59532,1.934765 1.0418,2.951757 0.47129,1.016993 1.11621,1.5875 0.64492,0.570508 1.76113,0.84336 v 1.215429 z m -9.525,-13.394531 h 10.36836 l -4.71289,-15.999023 z" />
    <path
       inkscape:connector-curvature="0"
       id="path838"
       style="font-style:normal;font-variant:normal;font-weight:normal;font-stretch:normal;font-size:50.79999924px;line-height:1.25;font-family:'Cambria Math';-inkscape-font-specification:'Cambria Math';letter-spacing:0px;word-spacing:0px;fill:#ffffff;fill-opacity:1;stroke:none;stroke-width:0.26458332"
       d="m 237.83081,75.528449 h -2.38125 q -0.5457,-1.488281 -1.28984,-2.331641 -0.74414,-0.868164 -1.68672,-1.215429 -0.94258,-0.347266 -2.30684,-0.347266 -1.98437,0 -3.175,0.942578 -1.16582,0.917774 -1.16582,2.530078 0,1.141016 0.47129,1.885157 0.47129,0.74414 1.46348,1.389062 0.99218,0.644922 3.49746,1.711523 2.53008,1.091407 3.89433,2.00918 1.38907,0.917773 2.15801,2.133203 0.79375,1.21543 0.79375,2.902149 0,1.95957 -0.66973,3.299023 -0.66972,1.339453 -1.88515,2.182812 -1.21543,0.84336 -2.90215,1.21543 -1.66191,0.37207 -3.64629,0.37207 -2.08359,0 -4.04316,-0.322461 -1.95957,-0.297656 -3.81992,-0.79375 v -5.184179 h 2.43085 q 0.66973,2.282031 1.98438,3.323828 1.31465,1.016992 3.62148,1.016992 0.89297,0 1.73633,-0.173633 0.86817,-0.198437 1.53789,-0.620117 0.66973,-0.446484 1.0666,-1.190625 0.39688,-0.74414 0.39688,-1.860351 0,-1.265039 -0.49609,-2.058789 -0.4961,-0.79375 -1.5379,-1.438672 -1.04179,-0.669727 -3.67109,-1.785938 -2.25723,-0.942578 -3.62148,-1.835547 -1.36426,-0.892968 -2.15801,-2.108398 -0.76895,-1.21543 -0.76895,-2.877344 0,-2.033984 1.09141,-3.522265 1.11621,-1.513086 3.1998,-2.306836 2.0836,-0.79375 4.88653,-0.79375 1.63711,0 3.15019,0.173633 1.53789,0.148828 3.84473,0.620117 z" />
    <path
       inkscape:connector-curvature="0"
       id="path840"
       style="font-style:normal;font-variant:normal;font-weight:normal;font-stretch:normal;font-size:50.79999924px;line-height:1.25;font-family:'Cambria Math';-inkscape-font-specification:'Cambria Math';letter-spacing:0px;word-spacing:0px;fill:#ffffff;fill-opacity:1;stroke:none;stroke-width:0.26458332"
       d="m 259.65893,75.528449 h -2.38125 q -0.5457,-1.488281 -1.28984,-2.331641 -0.74414,-0.868164 -1.68672,-1.215429 -0.94258,-0.347266 -2.30683,-0.347266 -1.98438,0 -3.175,0.942578 -1.16582,0.917774 -1.16582,2.530078 0,1.141016 0.47129,1.885157 0.47128,0.74414 1.46347,1.389062 0.99219,0.644922 3.49746,1.711523 2.53008,1.091407 3.89434,2.00918 1.38906,0.917773 2.15801,2.133203 0.79375,1.21543 0.79375,2.902149 0,1.95957 -0.66973,3.299023 -0.66973,1.339453 -1.88516,2.182812 -1.21543,0.84336 -2.90214,1.21543 -1.66192,0.37207 -3.64629,0.37207 -2.0836,0 -4.04317,-0.322461 -1.95957,-0.297656 -3.81992,-0.79375 v -5.184179 h 2.43086 q 0.66973,2.282031 1.98437,3.323828 1.31465,1.016992 3.62149,1.016992 0.89297,0 1.73633,-0.173633 0.86816,-0.198437 1.53789,-0.620117 0.66972,-0.446484 1.0666,-1.190625 0.39687,-0.74414 0.39687,-1.860351 0,-1.265039 -0.49609,-2.058789 -0.49609,-0.79375 -1.53789,-1.438672 -1.0418,-0.669727 -3.67109,-1.785938 -2.25723,-0.942578 -3.62149,-1.835547 -1.36426,-0.892968 -2.15801,-2.108398 -0.76894,-1.21543 -0.76894,-2.877344 0,-2.033984 1.0914,-3.522265 1.11622,-1.513086 3.19981,-2.306836 2.08359,-0.79375 4.88652,-0.79375 1.63711,0 3.1502,0.173633 1.53789,0.148828 3.84472,0.620117 z" />
    <path
       sodipodi:nodetypes="ccccsssccccccscccccc"
       inkscape:connector-curvature="0"
       id="path842"
       style="font-style:normal;font-variant:normal;font-weight:normal;font-stretch:normal;font-size:50.79999924px;line-height:1.25;font-family:'Cambria Math';-inkscape-font-specification:'Cambria Math';letter-spacing:0px;word-spacing:0px;fill:#ffffff;fill-opacity:1;stroke:none;stroke-width:0.26458332"
       d="m 264.86792,92.594074 c 0.64492,-0.198438 1.09967,-0.372071 1.36426,-0.520899 0.28112,-0.148828 0.51263,-0.355534 0.69453,-0.620117 0.19843,-0.264583 0.34726,-0.669727 0.44648,-1.21543 0.11576,-0.545703 0.17364,-1.39733 0.17364,-2.554882 V 76.867902 c 0,-1.058333 -0.0165,-1.909961 -0.0496,-2.554883 -0.0331,-0.644921 -0.14882,-1.157551 -0.34727,-1.53789 -0.19844,-0.396875 -0.50436,-0.686263 -0.91777,-0.868164 -0.39688,-0.198438 -0.96739,-0.363803 -1.71153,-0.496094 v -1.314649 l 5.7795,-0.223242 h 1.51308 v 17.735352 c 0,1.422135 0.0662,2.414323 0.19844,2.976562 0.13229,0.545703 0.38034,0.967383 0.74414,1.265039 0.38034,0.28112 0.99219,0.529167 1.83555,0.744141 v 1.215429 h -9.72344 z" />
    <path
       inkscape:connector-curvature="0"
       id="path844"
       style="font-style:normal;font-variant:normal;font-weight:normal;font-stretch:normal;font-size:50.79999924px;line-height:1.25;font-family:'Cambria Math';-inkscape-font-specification:'Cambria Math';letter-spacing:0px;word-spacing:0px;fill:#ffffff;fill-opacity:1;stroke:none;stroke-width:0.26458332"
       d="m 295.57613,75.528449 h -2.38125 q -0.54571,-1.488281 -1.28985,-2.331641 -0.74414,-0.868164 -1.68672,-1.215429 -0.94258,-0.347266 -2.30683,-0.347266 -1.98438,0 -3.175,0.942578 -1.16582,0.917774 -1.16582,2.530078 0,1.141016 0.47129,1.885157 0.47128,0.74414 1.46347,1.389062 0.99219,0.644922 3.49746,1.711523 2.53008,1.091407 3.89434,2.00918 1.38906,0.917773 2.15801,2.133203 0.79375,1.21543 0.79375,2.902149 0,1.95957 -0.66973,3.299023 -0.66973,1.339453 -1.88516,2.182812 -1.21543,0.84336 -2.90214,1.21543 -1.66192,0.37207 -3.64629,0.37207 -2.0836,0 -4.04317,-0.322461 -1.95957,-0.297656 -3.81992,-0.79375 v -5.184179 h 2.43086 q 0.66973,2.282031 1.98438,3.323828 1.31464,1.016992 3.62148,1.016992 0.89297,0 1.73633,-0.173633 0.86816,-0.198437 1.53789,-0.620117 0.66972,-0.446484 1.0666,-1.190625 0.39687,-0.74414 0.39687,-1.860351 0,-1.265039 -0.49609,-2.058789 -0.49609,-0.79375 -1.53789,-1.438672 -1.0418,-0.669727 -3.67109,-1.785938 -2.25723,-0.942578 -3.62149,-1.835547 -1.36426,-0.892968 -2.15801,-2.108398 -0.76894,-1.21543 -0.76894,-2.877344 0,-2.033984 1.09141,-3.522265 1.11621,-1.513086 3.1998,-2.306836 2.08359,-0.79375 4.88652,-0.79375 1.63711,0 3.1502,0.173633 1.53789,0.148828 3.84473,0.620117 z" />
    <path
       inkscape:connector-curvature="0"
       id="path846"
       style="font-style:normal;font-variant:normal;font-weight:normal;font-stretch:normal;font-size:50.79999924px;line-height:1.25;font-family:'Cambria Math';-inkscape-font-specification:'Cambria Math';letter-spacing:0px;word-spacing:0px;fill:#ffffff;fill-opacity:1;stroke:none;stroke-width:0.26458332"
       d="m 299.29683,71.336457 q 1.24023,-0.198438 2.00918,-0.694531 0.76894,-0.496094 1.19062,-1.265039 0.44649,-0.79375 0.69453,-1.959571 0.24805,-1.190625 0.5209,-3.447851 h 3.52227 v 6.126757 h 8.01191 v 2.505274 h -8.01191 v 11.038086 q 0,2.406054 0.19844,3.844726 0.19843,1.413867 0.74414,2.232422 0.5457,0.79375 1.24023,1.141016 0.69453,0.347265 1.78594,0.347265 0.99219,0 1.86035,-0.396875 0.86816,-0.421679 1.71152,-1.190625 l 1.11621,1.339453 q -1.76113,1.711524 -3.34863,2.480469 -1.56269,0.768945 -3.24941,0.768945 -3.19981,0 -4.7625,-1.885156 -1.5627,-1.909961 -1.5627,-5.953125 V 72.601496 h -3.67109 z" />
    <path
       inkscape:connector-curvature="0"
       style="opacity:1;fill:none;fill-opacity:1;stroke:#ff0000;stroke-width:1.26499999;stroke-linecap:round;stroke-linejoin:round;stroke-miterlimit:4;stroke-dasharray:none;stroke-dashoffset:0;stroke-opacity:1;paint-order:normal"
       d="m 231.18675,88.791873 -1.86626,1.86626 -1.86626,-1.86626"
       id="rect839-9-1-2"
       sodipodi:nodetypes="ccc" />
    <path
       style="opacity:1;fill:none;fill-opacity:1;stroke:#ff0000;stroke-width:1.26499999;stroke-linecap:round;stroke-linejoin:round;stroke-miterlimit:4;stroke-dasharray:none;stroke-dashoffset:0;stroke-opacity:1;paint-order:normal"
       d="m 119.6076,82.058031 h 3.73252 v 3.73252"
       id="rect839-0-4"
       inkscape:connector-curvature="0"
       sodipodi:nodetypes="ccc" />
    <path
       style="opacity:1;fill:none;fill-opacity:1;stroke:#ff0000;stroke-width:1.26499999;stroke-linecap:round;stroke-linejoin:round;stroke-miterlimit:4;stroke-dasharray:none;stroke-dashoffset:0;stroke-opacity:1;paint-order:normal"
       d="m 121.47834,83.919801 v 0"
       id="rect839-0-5-2"
       inkscape:connector-curvature="0"
       sodipodi:nodetypes="cc" />
    <path
       style="opacity:1;fill:none;fill-opacity:1;stroke:#ff0000;stroke-width:1.26499999;stroke-linecap:round;stroke-linejoin:round;stroke-miterlimit:4;stroke-dasharray:none;stroke-dashoffset:0;stroke-opacity:1;paint-order:normal"
       d="m 146.69442,85.395994 v 3.732591 h 3.73207 v -3.732591 z"
       id="rect839-0-4-5"
       inkscape:connector-curvature="0" />
    <path
       style="opacity:1;fill:none;fill-opacity:1;stroke:#ff0000;stroke-width:1.26499999;stroke-linecap:round;stroke-linejoin:round;stroke-miterlimit:4;stroke-dasharray:none;stroke-dashoffset:0;stroke-opacity:1;paint-order:normal"
       d="m 175.09551,70.740849 h -3.73252 v -3.73252"
       id="rect839-0-8"
       inkscape:connector-curvature="0"
       sodipodi:nodetypes="ccc" />
    <path
       style="opacity:1;fill:none;fill-opacity:1;stroke:#ff0000;stroke-width:1.26499999;stroke-linecap:round;stroke-linejoin:round;stroke-miterlimit:4;stroke-dasharray:none;stroke-dashoffset:0;stroke-opacity:1;paint-order:normal"
       d="m 173.23372,68.870117 v 0"
       id="rect839-0-5-4"
       inkscape:connector-curvature="0"
       sodipodi:nodetypes="cc" />
    <path
       style="opacity:1;fill:none;fill-opacity:1;stroke:#ff0000;stroke-width:1.26499999;stroke-linecap:round;stroke-linejoin:round;stroke-miterlimit:4;stroke-dasharray:none;stroke-dashoffset:0;stroke-opacity:1;paint-order:normal"
       d="m 175.09551,85.307038 h -3.73252 v -3.73252"
       id="rect839-0-9"
       inkscape:connector-curvature="0"
       sodipodi:nodetypes="ccc" />
    <path
       style="opacity:1;fill:none;fill-opacity:1;stroke:#ff0000;stroke-width:1.26499999;stroke-linecap:round;stroke-linejoin:round;stroke-miterlimit:4;stroke-dasharray:none;stroke-dashoffset:0;stroke-opacity:1;paint-order:normal"
       d="m 173.23372,83.436305 v 0"
       id="rect839-0-5-3"
       inkscape:connector-curvature="0"
       sodipodi:nodetypes="cc" />
    <path
       style="opacity:1;fill:none;fill-opacity:1;stroke:#ff0000;stroke-width:1.26499999;stroke-linecap:round;stroke-linejoin:round;stroke-miterlimit:4;stroke-dasharray:none;stroke-dashoffset:0;stroke-opacity:1;paint-order:normal"
       d="m 267.68345,67.038044 v -3.73251 h 3.73252"
       id="rect839-0-55-3"
       inkscape:connector-curvature="0"
       sodipodi:nodetypes="ccc" />
    <path
       inkscape:connector-curvature="0"
       style="opacity:1;fill:none;fill-opacity:1;stroke:#ff0000;stroke-width:1.26499999;stroke-linecap:round;stroke-linejoin:round;stroke-miterlimit:4;stroke-dasharray:none;stroke-dashoffset:0;stroke-opacity:1;paint-order:normal"
       d="m 288.93207,88.791868 -1.86626,1.86626 -1.86626,-1.86626"
       id="rect839-9-1-2-2"
       sodipodi:nodetypes="ccc" />
    <path
       inkscape:connector-curvature="0"
       style="opacity:1;fill:none;fill-opacity:1;stroke:#ff0000;stroke-width:1.26499999;stroke-linecap:round;stroke-linejoin:round;stroke-miterlimit:4;stroke-dasharray:none;stroke-dashoffset:0;stroke-opacity:1;paint-order:normal"
       d="m 253.01488,88.791873 -1.86626,1.86626 -1.86626,-1.86626"
       id="rect839-9-1-2-0"
       sodipodi:nodetypes="ccc" />
    <path
       inkscape:connector-curvature="0"
       style="opacity:1;fill:none;fill-opacity:1;stroke:#ff0000;stroke-width:1.26499999;stroke-linecap:round;stroke-linejoin:round;stroke-miterlimit:4;stroke-dasharray:none;stroke-dashoffset:0;stroke-opacity:1;paint-order:normal"
       d="m 312.12065,83.275833 -1.86626,-1.86626 1.86626,-1.86626"
       id="rect839-9-1-2-0-6"
       sodipodi:nodetypes="ccc" />
  </g>
</svg>
